<?xml version="1.0" encoding="UTF-8"?>
<svg id="_レイヤー_6" data-name="レイヤー 6" xmlns="http://www.w3.org/2000/svg" viewBox="0 0 1000 1000">
  <defs>
    <style>
      .cls-1 {
        fill: #fff;
      }
    </style>
  </defs>
  <path class="cls-1" d="M879.22,190.33c-1.33,2.07-14.12,1.11-17.25,1.65-5.65.96-42.42,10.95-43.18,14.25-.67,2.92,25.39,22.44,27.95,27.92,3.49,7.49-2.64,8.95-8.85,5.8-12.25-6.21-27.57-24.93-40.69-30.28-12.92-5.27-35.17-7.13-50.9-12.55-7.79-2.68-19.47-11.15-27.27-9.1-3.47.91-6.46,4.43-9.49,5.65-19.79,8.01-46.53,1.93-68.23,1.28-43.32-1.29-91.89-10.33-124.04-42.26-2.93-2.91-9.32-13.22-11.27-14.41-6.7-4.09-45.48,3.02-54.67,5.75-37.72,11.23-80.82,44.99-85.73,86.45-7.77,65.6,53.98,102.4,105.89,124.94,128.05,55.61,273.36,78.99,354.6,205.8,109.12,170.33-32.09,380.07-227.21,368.9-49-2.81-107.76-32.67-146.5-61.96-7.36-5.57-14.18-14.88-22.73-19.6l-.78-2.26,1.49-3.15,49-27.59c4.93,3.53,8.49,8.72,13.04,12.62,76.95,66.09,161.42,71.21,232.76-6.02,80.33-86.96,80.63-196.84-6.07-279.33-4.14-3.94-25.33-22.67-28.79-24.08-8.71-3.56-8.59,2.73-12.56,6.22-20.87,18.32-39.71,38.29-60.71,56.34-23.85,20.49-49.88,38.66-73.3,59.72l-3.37.51-47.22-37.52c-3.37-4.99,9.54-10.31,13.6-13.64,31.16-25.58,66.03-65.78,94.51-95.79,2.11-2.22,15.34-16.98,15.08-18.13-4.66-2.69-10.85-6.46-15.6-8.6-84.37-37.92-227.88-70.28-278.77-150.22-75.39-118.42,45.2-213.97,156.3-228.23,12.43-1.6,20.62,2.88,24.73-13.77-13.93-1.02-27.41-1.37-41.36.17-80.88,8.97-180.04,68.23-189.69,156.18-16.17,147.33,161.21,195.8,265.77,239.95,5.05,2.13,37.52,15.47,38.67,17.25,1.03,1.6.99,3.03-.05,4.58l-36.55,39.11c-3.69,1.22-14.35-6.25-18.67-8.13-105.92-46.27-259.22-87.03-305.23-205.29-48.74-125.27,49.71-232.66,161.47-273.51,92.65-33.86,236.95-37.76,316.76,28.22,17.61,14.56,45.24,60.32,48.79,82.59,1.74,10.92-2.53,9.71-7.19,17.73,1.22,4.86,51.91,19.99,59.71,20.38,26.44,1.31,44.24-17.43,76.36-11.37,2.6.49,10.49,2.17,7.47,6.84ZM634.07,104.65c-1.6.29-13.62,6.48-14.78,7.91-1.43,1.76-2.75,5.53-2.91,7.78-1.82,25.65,49.22,25.7,41.86-2.83-1.91-7.41-17.52-14.04-24.17-12.86Z"/>
  <path class="cls-1" d="M684.07,548.4c.42.24.79,2.49,1.87,3.29,40.89,30.65,73.04,96.45,64.76,148.05-11.6,72.31-57.49,126.43-121.31,159.59-2.4,1.25-4.09,4.22-6.95,5.14-7.53,2.41-31.27.48-39.75-1.22-4.28-.86-37.71-11.58-38.85-13.29s.29-3.79,1.48-5.16c3.14-3.63,19.37-9.9,24.68-13.08,4.45-2.67,11.16-6.49,15.1-9.07,1.94-1.28,13.81-9.86,14.26-10.63,2.8-4.79-8.93-18.31-12.48-22.38-20.02-22.92-45.22-42.01-67.78-62.11-56-49.88-137.94-131.4-219.41-125.1-69.76,5.4-122.42,53.55-98.48,127.18,8.07,24.82,27.41,40.04,43.44,59.31-15.08,19.13-24.51,42.08-34.33,64.26-1.65.85-3.07,1.55-4.96.71-1.08-.48-15.96-13.12-18.2-15.14-90.41-81.39-96.15-220.98,24.44-276.04,161.75-73.85,299.84,71.21,404.76,173.32,4.31,3.34,26.99,32.51,29.16,32.34,4.28-.33,15.66-18.14,18.27-22.61,29.75-50.79,24.64-101.9-14.19-145.6-3.45-3.88-11.26-6.96-10.73-12.01.25-2.37,27.17-25.43,30.31-30.24,4.15-1.5,10.85-11.84,14.89-9.52Z"/>
  <path class="cls-1" d="M338.85,793.21c-8.98,11.32-21.77,30.61-28.33,43.43-2.28,4.45-13.89,30.54-11.49,32.98,28.03,6.02,58.1,7.59,86.92,6.15,9.86-.49,23.17-1.94,33.09-3.17,3.58-.44,6.09-3.63,10.57-3,1.3.19,18.87,12.42,21.9,14.49,4.21,2.89,8.52,7.69,13.21,10.96,5.57,3.87,16.13,5.09,15.59,13.85-12.08-.52-24.31,5.9-35.94,8.62-63.51,14.85-127.41,13.94-191.08.07-4.05-.88-32.37-8.95-33.7-10.11-.87-.76-1.67-1.5-1.99-2.67-2.13-7.9,17.46-59.17,22.21-69.38,35.12-75.49,99.9-132.24,167.45-178.32,4.41-.43,34.36,28.61,41.86,31.61,8.12,6.1-7.86,10.74-12.52,14.23-32.67,24.39-72.89,58.89-97.75,90.26Z"/>
  <path class="cls-1" d="M324.68,857.59c-.89-7.04,2.42-13.46,5.25-19.67,2.57-5.63,18.25-32.75,21.97-35.41,4.02-2.87,17.26-4.85,23.07-7.15,37.62-14.86,77.27-42.53,110.26-66.06,3.4-2.43,3.45-7.58,11.69-3.76,3.79,5.06,35.53,29.6,36.15,31.93,1.4,5.32-6.64,6.98-9.68,9.54-40.31,33.94-79.5,57.86-128.16,78.77-12.51,5.37-34.37,15.91-47.1,14.81-7.61-.66-15.09-4.74-23.44-2.99Z"/>
  <path class="cls-1" d="M640.49,946.63c-12.42,4.12-24.16,9.87-36.61,14.02-82.52,27.49-171.13,22.33-248.95-16.26-.04-5.93,25.68-3.35,30.93-3.79,19.99-1.67,61.23-14.37,75.55-13.68,9.59.46,21.35,3.14,33.01,3.69,43.08,2.04,91.12,17.47,131.75,13.07,5.93-.64,14.45-8.18,14.31,2.96Z"/>
</svg>