<?xml version="1.0" encoding="UTF-8"?>
<svg id="_レイヤー_6" data-name="レイヤー 6" xmlns="http://www.w3.org/2000/svg" xmlns:xlink="http://www.w3.org/1999/xlink" viewBox="0 0 1000 1000">
  <defs>
    <style>
      .cls-1 {
        fill: url(#_名称未設定グラデーション_375);
      }
    </style>
    <linearGradient id="_名称未設定グラデーション_375" data-name="名称未設定グラデーション 375" x1="500" y1="22.05" x2="500" y2="977.95" gradientUnits="userSpaceOnUse">
      <stop offset=".01" stop-color="#0581ff"/>
      <stop offset=".1" stop-color="#0777f9"/>
      <stop offset=".26" stop-color="#0f5eea"/>
      <stop offset=".46" stop-color="#1c35d2"/>
      <stop offset=".57" stop-color="#241bc3"/>
      <stop offset=".87" stop-color="#050059"/>
    </linearGradient>
  </defs>
  <path class="cls-1" d="M879.22,190.33c-1.33,2.07-14.12,1.11-17.25,1.65-5.65.96-42.42,10.95-43.18,14.25-.67,2.92,25.39,22.44,27.95,27.92,3.49,7.49-2.64,8.95-8.85,5.8-12.25-6.21-27.57-24.93-40.69-30.28-12.92-5.27-35.17-7.13-50.9-12.55-7.79-2.68-19.47-11.15-27.27-9.1-3.47.91-6.46,4.43-9.49,5.65-19.79,8.01-46.53,1.93-68.23,1.28-43.32-1.29-91.89-10.33-124.04-42.26-2.93-2.91-9.32-13.22-11.27-14.41-6.7-4.09-45.48,3.02-54.67,5.75-37.72,11.23-80.82,44.99-85.73,86.45-7.77,65.6,53.98,102.4,105.89,124.94,128.05,55.61,273.36,78.99,354.6,205.8,109.12,170.33-32.09,380.07-227.21,368.9-49-2.81-107.76-32.67-146.5-61.96-7.36-5.57-14.18-14.88-22.73-19.6l-.78-2.26,1.49-3.15,49-27.59c4.93,3.53,8.49,8.72,13.04,12.62,76.95,66.09,161.42,71.21,232.76-6.02,80.33-86.96,80.63-196.84-6.07-279.33-4.14-3.94-25.33-22.67-28.79-24.08-8.71-3.56-8.59,2.73-12.56,6.22-20.87,18.32-39.71,38.29-60.71,56.34-23.85,20.49-49.88,38.66-73.3,59.72l-3.37.51-47.22-37.52c-3.37-4.99,9.54-10.31,13.6-13.64,31.16-25.58,66.03-65.78,94.51-95.79,2.11-2.22,15.34-16.98,15.08-18.13-4.66-2.69-10.85-6.46-15.6-8.6-84.37-37.92-227.88-70.28-278.77-150.22-75.39-118.42,45.2-213.97,156.3-228.23,12.43-1.6,20.62,2.88,24.73-13.77-13.93-1.02-27.41-1.37-41.36.17-80.88,8.97-180.04,68.23-189.69,156.18-16.17,147.33,161.21,195.8,265.77,239.95,5.05,2.13,37.52,15.47,38.67,17.25,1.03,1.6.99,3.03-.05,4.58l-36.55,39.11c-3.69,1.22-14.35-6.25-18.67-8.13-105.92-46.27-259.22-87.03-305.23-205.29-48.74-125.27,49.71-232.66,161.47-273.51,92.65-33.86,236.95-37.76,316.76,28.22,17.61,14.56,45.24,60.32,48.79,82.59,1.74,10.92-2.53,9.71-7.19,17.73,1.22,4.86,51.91,19.99,59.71,20.38,26.44,1.31,44.24-17.43,76.36-11.37,2.6.49,10.49,2.17,7.47,6.84ZM634.07,104.65c-1.6.29-13.62,6.48-14.78,7.91-1.43,1.76-2.75,5.53-2.91,7.78-1.82,25.65,49.22,25.7,41.86-2.83-1.91-7.41-17.52-14.04-24.17-12.86ZM669.18,557.91c-3.14,4.82-30.06,27.87-30.31,30.24-.53,5.05,7.28,8.12,10.73,12.01,38.83,43.7,43.94,94.8,14.19,145.6-2.62,4.47-14,22.28-18.27,22.61-2.17.17-24.84-29.01-29.16-32.34-104.92-102.11-243.01-247.17-404.76-173.32-120.59,55.06-114.84,194.64-24.44,276.04,2.24,2.02,17.12,14.66,18.2,15.14,1.89.83,3.31.14,4.96-.71,9.82-22.18,19.25-45.13,34.33-64.26-16.03-19.26-35.37-34.49-43.44-59.31-23.94-73.63,28.72-121.78,98.48-127.18,81.47-6.31,163.41,75.22,219.41,125.1,22.56,20.09,47.76,39.19,67.78,62.11,3.56,4.07,15.28,17.6,12.48,22.38-.45.77-12.32,9.36-14.26,10.63-3.94,2.59-10.65,6.41-15.1,9.07-5.31,3.18-21.54,9.46-24.68,13.08-1.19,1.37-2.57,3.54-1.48,5.16,1.14,1.71,34.56,12.43,38.85,13.29,8.48,1.7,32.22,3.63,39.75,1.22,2.86-.92,4.55-3.89,6.95-5.14,63.82-33.16,109.71-87.28,121.31-159.59,8.28-51.6-23.87-117.4-64.76-148.05-1.08-.81-1.45-3.05-1.87-3.29-4.04-2.32-10.74,8.02-14.89,9.52ZM436.6,702.95c4.67-3.48,20.64-8.13,12.52-14.23-7.49-3-37.45-32.04-41.86-31.61-67.55,46.08-132.33,102.83-167.45,178.32-4.75,10.21-24.34,61.48-22.21,69.38.32,1.17,1.11,1.91,1.99,2.67,1.32,1.16,29.65,9.22,33.7,10.11,63.67,13.88,127.57,14.79,191.08-.07,11.63-2.72,23.86-9.15,35.94-8.62.54-8.76-10.02-9.97-15.59-13.85-4.69-3.26-9-8.06-13.21-10.96-3.02-2.08-20.6-14.31-21.9-14.49-4.48-.64-6.99,2.55-10.57,3-9.93,1.23-23.23,2.67-33.09,3.17-28.82,1.44-58.9-.13-86.92-6.15-2.41-2.44,9.21-28.53,11.49-32.98,6.56-12.82,19.35-32.1,28.33-43.43,24.86-31.37,65.09-65.87,97.75-90.26ZM348.11,860.58c12.73,1.11,34.59-9.43,47.1-14.81,48.67-20.91,87.86-44.83,128.16-78.77,3.04-2.56,11.09-4.22,9.68-9.54-.61-2.33-32.36-26.87-36.15-31.93-8.24-3.81-8.29,1.33-11.69,3.76-32.99,23.53-72.64,51.2-110.26,66.06-5.81,2.3-19.05,4.28-23.07,7.15-3.72,2.66-19.4,29.78-21.97,35.41-2.83,6.21-6.15,12.63-5.25,19.67,8.34-1.75,15.83,2.33,23.44,2.99ZM626.18,943.68c-40.63,4.4-88.68-11.04-131.75-13.07-11.66-.55-23.42-3.23-33.01-3.69-14.32-.69-55.56,12.01-75.55,13.68-5.25.44-30.97-2.14-30.93,3.79,77.82,38.6,166.43,43.76,248.95,16.26,12.45-4.15,24.19-9.9,36.61-14.02.14-11.14-8.38-3.6-14.31-2.96Z"/>
</svg>